<svg xmlns="http://www.w3.org/2000/svg" viewBox="0 0 134 134"><path fill="#e8e7e2" d="M-10 42h1440v50H-10z"/><path fill="#6c6f77" d="M-10-8h1440v50H-10z"/><path fill="#731453" d="M0 0h134v134H0z"/><path d="M12 58.5l13-.1h13l.4-.8c2.1-4.1 5-7.4 8.6-9.9 2.1-1.5 5-2.9 7.6-3.7 1.8-.6 2.9-.9 4.4-1.2 1.6-.3 4.2-.7 5.1-.7.3 0 .5-.1 2.5 0 2.8.1 4.6.2 7.1.6 1.5.2 4.2.9 4.6 1 .5.1 2 .6 2 .7.1 0 .5.1.9.3.1.1.4.2.7.3.5.2 1.4.6 1.5.7 0 .1.1.1.2.2.3.2.9.5 1 .6l.2.2c.1-.1 1.3.9 1.3.9.1.1 1 .7 1.3 1l.4.4c.4.2 2.2 2 2.2 2-.1 0 .1.1.1.2.1.1.4.4 1.5 1.7.1.2.3.4.3.4.1.1.1.2.1.2.1-.1 3.2 4.3 3.4 4.7l.1.2H122V93H96.3V67.3h6.4v18.3h3V67.3h6.2v18.3h3.1V64H91.1l-.1-.3c-.1-.2-.1-.3-.1-.3 0-.1-.4-1-.9-1.8-1.8-3.7-4.4-6.8-7.5-9-3.5-2.4-7.9-4-12.7-4.6-1-.1-4.3-.2-5.5-.1-3.8.4-7.5 1.4-10.7 2.9-2.3 1.2-4.5 2.7-6.1 4.2-.3.2-.5.4-.5.4l-.5.5-.5.5s-.2.4-.6.8c-1.2 1.4-2.1 2.9-2.9 4.4-.2.4-.4.7-.4.7-.1.2-.2.4-.2.6-.1.2-.2.5-.3.7l-.1.4-11.1-.1H18.7l-.5.1v21.7h3.4V72.8l.1-5.5 3.2.1h3.2v9.1l.1 9.2h2.6V70.8l.1-3.5H34l3-.1.1 12.9V93H12V58.5zm33.1 5.3c.1-.1.8-1.2 1.6-2.6l1.6-2.4h36.2l2 2.5c1 1.4 1.9 2.5 2 2.6 0 .1-3.7.1-21.7.1H44.9l.2-.2z" fill="#fff"/></svg>