<?xml version="1.0" encoding="utf-8"?>
<!-- Generator: Adobe Illustrator 21.0.0, SVG Export Plug-In . SVG Version: 6.00 Build 0)  -->
<svg version="1.1" id="Layer_1" xmlns:sketch="http://www.bohemiancoding.com/sketch/ns"
	 xmlns="http://www.w3.org/2000/svg" xmlns:xlink="http://www.w3.org/1999/xlink" x="0px" y="0px" viewBox="0 0 134 134"
	 style="enable-background:new 0 0 134 134;" xml:space="preserve">
<style type="text/css">
	.st0{fill:#E8E7E2;}
	.st1{fill:#6C6F77;}
	.st2{fill:#731453;}
	.st3{fill:#FFFFFF;}
</style>
<title>logo</title>
<desc>Created with Sketch.</desc>
<g id="Home-page" sketch:type="MSPage">
	<g id="New-style" transform="translate(-10.000000, -8.000000)" sketch:type="MSArtboardGroup">
		<g id="Header---Dark---New-style" sketch:type="MSLayerGroup">
			<g id="Second-bar" transform="translate(0.000000, 50.000000)" sketch:type="MSShapeGroup">
				<rect id="Rectangle-3" class="st0" width="1440" height="50"/>
			</g>
			<g id="First-bar" sketch:type="MSShapeGroup">
				<rect id="Rectangle-2" class="st1" width="1440" height="50"/>
			</g>
			<g id="Logo" transform="translate(10.000000, 8.000000)" sketch:type="MSShapeGroup">
				<rect id="Background" class="st2" width="134" height="134"/>
				<g id="nccppr-vector" transform="translate(12.000000, 42.000000)">
					<path id="Fill-2" class="st3" d="M0,16.5l13-0.1h13l0.4-0.8c2.1-4.1,5-7.4,8.6-9.9c2.1-1.5,5-2.9,7.6-3.7
						c1.8-0.6,2.9-0.9,4.4-1.2c1.6-0.3,4.2-0.7,5.1-0.7c0.3,0,0.5-0.1,2.5,0c2.8,0.1,4.6,0.2,7.1,0.6c1.5,0.2,4.2,0.9,4.6,1
						c0.5,0.1,2,0.6,2,0.7c0.1,0,0.5,0.1,0.9,0.3c0.1,0.1,0.4,0.2,0.7,0.3c0.5,0.2,1.4,0.6,1.5,0.7c0,0.1,0.1,0.1,0.2,0.2
						c0.3,0.2,0.9,0.5,1,0.6c0.1,0.1,0.2,0.2,0.2,0.2c0.1-0.1,1.3,0.9,1.3,0.9c0.1,0.1,1,0.7,1.3,1c0.1,0.1,0.2,0.2,0.4,0.4
						C76.2,7.2,78,9,78,9c-0.1,0,0.1,0.1,0.1,0.2c0.1,0.1,0.4,0.4,1.5,1.7c0.1,0.2,0.3,0.4,0.3,0.4c0.1,0.1,0.1,0.2,0.1,0.2
						c0.1-0.1,3.2,4.3,3.4,4.7l0.1,0.2h13.2H110v17.3V51H97.1H84.3V38.1V25.3h3.2h3.2v9.1v9.2h1.5h1.5v-9.2v-9.1h3.1h3.1v9.1v9.2
						h1.5h1.6V32.8V22H91H79.1L79,21.7c-0.1-0.2-0.1-0.3-0.1-0.3c0-0.1-0.4-1-0.9-1.8c-1.8-3.7-4.4-6.8-7.5-9
						C67,8.2,62.6,6.6,57.8,6c-1-0.1-4.3-0.2-5.5-0.1c-3.8,0.4-7.5,1.4-10.7,2.9c-2.3,1.2-4.5,2.7-6.1,4.2c-0.3,0.2-0.5,0.4-0.5,0.4
						s-0.2,0.2-0.5,0.5c-0.3,0.3-0.5,0.5-0.5,0.5c0,0-0.2,0.4-0.6,0.8c-1.2,1.4-2.1,2.9-2.9,4.4c-0.2,0.4-0.4,0.7-0.4,0.7
						c-0.1,0.2-0.2,0.4-0.2,0.6c-0.1,0.2-0.2,0.5-0.3,0.7L29.5,22l-11.1-0.1H6.7L6.2,22v10.8v10.9h1.7h1.7v-3.7v-9.2l0.1-5.5
						l3.2,0.1h3.2v9.1l0.1,9.2h1.3h1.3V38v-5.6v-3.6l0.1-3.5H22l3-0.1l0.1,12.9V51H12.5H0V33.8V16.5z M33.1,21.8
						c0.1-0.1,0.8-1.2,1.6-2.6l1.6-2.4h18.1h18.1l2,2.5c1,1.4,1.9,2.5,2,2.6c0,0.1-3.7,0.1-21.7,0.1H32.9L33.1,21.8L33.1,21.8z"/>
				</g>
			</g>
		</g>
	</g>
</g>
</svg>
